<?xml version="1.0" encoding="utf-8" standalone="no"?>
<!DOCTYPE svg PUBLIC "-//W3C//DTD SVG 1.1//EN"
  "http://www.w3.org/Graphics/SVG/1.1/DTD/svg11.dtd">
<svg xmlns:xlink="http://www.w3.org/1999/xlink" width="460.8pt" height="345.6pt" viewBox="0 0 460.8 345.6" xmlns="http://www.w3.org/2000/svg" version="1.1">
 <metadata>
  <rdf:RDF xmlns:dc="http://purl.org/dc/elements/1.1/" xmlns:cc="http://creativecommons.org/ns#" xmlns:rdf="http://www.w3.org/1999/02/22-rdf-syntax-ns#">
   <cc:Work>
    <dc:type rdf:resource="http://purl.org/dc/dcmitype/StillImage"/>
    <dc:date>2024-04-15T15:33:54.723776</dc:date>
    <dc:format>image/svg+xml</dc:format>
    <dc:creator>
     <cc:Agent>
      <dc:title>Matplotlib v3.5.1, https://matplotlib.org/</dc:title>
     </cc:Agent>
    </dc:creator>
   </cc:Work>
  </rdf:RDF>
 </metadata>
 <defs>
  <style type="text/css">*{stroke-linejoin: round; stroke-linecap: butt}</style>
 </defs>
 <g id="figure_1">
  <g id="patch_1">
   <path d="M 0 345.6 
L 460.8 345.6 
L 460.8 0 
L 0 0 
z
" style="fill: #ffffff"/>
  </g>
  <g id="axes_1">
   <g id="patch_2">
    <path d="M 57.6 307.584 
L 414.72 307.584 
L 414.72 41.472 
L 57.6 41.472 
z
" style="fill: #ffffff"/>
   </g>
   <g id="matplotlib.axis_1">
    <g id="xtick_1">
     <g id="line2d_1">
      <path d="M 67.207124 307.584 
L 67.207124 41.472 
" clip-path="url(#p06acf9a0e5)" style="fill: none; stroke-dasharray: 0.8,1.32; stroke-dashoffset: 0; stroke: #909090; stroke-width: 0.8"/>
     </g>
     <g id="line2d_2">
      <defs>
       <path id="m136f195bfe" d="M 0 0 
L 0 3.5 
" style="stroke: #000000; stroke-width: 0.8"/>
      </defs>
      <g>
       <use xlink:href="#m136f195bfe" x="67.207124" y="307.584" style="stroke: #000000; stroke-width: 0.8"/>
      </g>
     </g>
     <g id="text_1">
      <!-- 0 -->
      <g transform="translate(64.025874 322.182437)scale(0.1 -0.1)">
       <defs>
        <path id="DejaVuSans-30" d="M 2034 4250 
Q 1547 4250 1301 3770 
Q 1056 3291 1056 2328 
Q 1056 1369 1301 889 
Q 1547 409 2034 409 
Q 2525 409 2770 889 
Q 3016 1369 3016 2328 
Q 3016 3291 2770 3770 
Q 2525 4250 2034 4250 
z
M 2034 4750 
Q 2819 4750 3233 4129 
Q 3647 3509 3647 2328 
Q 3647 1150 3233 529 
Q 2819 -91 2034 -91 
Q 1250 -91 836 529 
Q 422 1150 422 2328 
Q 422 3509 836 4129 
Q 1250 4750 2034 4750 
z
" transform="scale(0.015625)"/>
       </defs>
       <use xlink:href="#DejaVuSans-30"/>
      </g>
     </g>
    </g>
    <g id="xtick_2">
     <g id="line2d_3">
      <path d="M 133.463154 307.584 
L 133.463154 41.472 
" clip-path="url(#p06acf9a0e5)" style="fill: none; stroke-dasharray: 0.8,1.32; stroke-dashoffset: 0; stroke: #909090; stroke-width: 0.8"/>
     </g>
     <g id="line2d_4">
      <g>
       <use xlink:href="#m136f195bfe" x="133.463154" y="307.584" style="stroke: #000000; stroke-width: 0.8"/>
      </g>
     </g>
     <g id="text_2">
      <!-- 20 -->
      <g transform="translate(127.100654 322.182437)scale(0.1 -0.1)">
       <defs>
        <path id="DejaVuSans-32" d="M 1228 531 
L 3431 531 
L 3431 0 
L 469 0 
L 469 531 
Q 828 903 1448 1529 
Q 2069 2156 2228 2338 
Q 2531 2678 2651 2914 
Q 2772 3150 2772 3378 
Q 2772 3750 2511 3984 
Q 2250 4219 1831 4219 
Q 1534 4219 1204 4116 
Q 875 4013 500 3803 
L 500 4441 
Q 881 4594 1212 4672 
Q 1544 4750 1819 4750 
Q 2544 4750 2975 4387 
Q 3406 4025 3406 3419 
Q 3406 3131 3298 2873 
Q 3191 2616 2906 2266 
Q 2828 2175 2409 1742 
Q 1991 1309 1228 531 
z
" transform="scale(0.015625)"/>
       </defs>
       <use xlink:href="#DejaVuSans-32"/>
       <use xlink:href="#DejaVuSans-30" x="63.623047"/>
      </g>
     </g>
    </g>
    <g id="xtick_3">
     <g id="line2d_5">
      <path d="M 199.719184 307.584 
L 199.719184 41.472 
" clip-path="url(#p06acf9a0e5)" style="fill: none; stroke-dasharray: 0.8,1.32; stroke-dashoffset: 0; stroke: #909090; stroke-width: 0.8"/>
     </g>
     <g id="line2d_6">
      <g>
       <use xlink:href="#m136f195bfe" x="199.719184" y="307.584" style="stroke: #000000; stroke-width: 0.8"/>
      </g>
     </g>
     <g id="text_3">
      <!-- 40 -->
      <g transform="translate(193.356684 322.182437)scale(0.1 -0.1)">
       <defs>
        <path id="DejaVuSans-34" d="M 2419 4116 
L 825 1625 
L 2419 1625 
L 2419 4116 
z
M 2253 4666 
L 3047 4666 
L 3047 1625 
L 3713 1625 
L 3713 1100 
L 3047 1100 
L 3047 0 
L 2419 0 
L 2419 1100 
L 313 1100 
L 313 1709 
L 2253 4666 
z
" transform="scale(0.015625)"/>
       </defs>
       <use xlink:href="#DejaVuSans-34"/>
       <use xlink:href="#DejaVuSans-30" x="63.623047"/>
      </g>
     </g>
    </g>
    <g id="xtick_4">
     <g id="line2d_7">
      <path d="M 265.975213 307.584 
L 265.975213 41.472 
" clip-path="url(#p06acf9a0e5)" style="fill: none; stroke-dasharray: 0.8,1.32; stroke-dashoffset: 0; stroke: #909090; stroke-width: 0.8"/>
     </g>
     <g id="line2d_8">
      <g>
       <use xlink:href="#m136f195bfe" x="265.975213" y="307.584" style="stroke: #000000; stroke-width: 0.8"/>
      </g>
     </g>
     <g id="text_4">
      <!-- 60 -->
      <g transform="translate(259.612713 322.182437)scale(0.1 -0.1)">
       <defs>
        <path id="DejaVuSans-36" d="M 2113 2584 
Q 1688 2584 1439 2293 
Q 1191 2003 1191 1497 
Q 1191 994 1439 701 
Q 1688 409 2113 409 
Q 2538 409 2786 701 
Q 3034 994 3034 1497 
Q 3034 2003 2786 2293 
Q 2538 2584 2113 2584 
z
M 3366 4563 
L 3366 3988 
Q 3128 4100 2886 4159 
Q 2644 4219 2406 4219 
Q 1781 4219 1451 3797 
Q 1122 3375 1075 2522 
Q 1259 2794 1537 2939 
Q 1816 3084 2150 3084 
Q 2853 3084 3261 2657 
Q 3669 2231 3669 1497 
Q 3669 778 3244 343 
Q 2819 -91 2113 -91 
Q 1303 -91 875 529 
Q 447 1150 447 2328 
Q 447 3434 972 4092 
Q 1497 4750 2381 4750 
Q 2619 4750 2861 4703 
Q 3103 4656 3366 4563 
z
" transform="scale(0.015625)"/>
       </defs>
       <use xlink:href="#DejaVuSans-36"/>
       <use xlink:href="#DejaVuSans-30" x="63.623047"/>
      </g>
     </g>
    </g>
    <g id="xtick_5">
     <g id="line2d_9">
      <path d="M 332.231243 307.584 
L 332.231243 41.472 
" clip-path="url(#p06acf9a0e5)" style="fill: none; stroke-dasharray: 0.8,1.32; stroke-dashoffset: 0; stroke: #909090; stroke-width: 0.8"/>
     </g>
     <g id="line2d_10">
      <g>
       <use xlink:href="#m136f195bfe" x="332.231243" y="307.584" style="stroke: #000000; stroke-width: 0.8"/>
      </g>
     </g>
     <g id="text_5">
      <!-- 80 -->
      <g transform="translate(325.868743 322.182437)scale(0.1 -0.1)">
       <defs>
        <path id="DejaVuSans-38" d="M 2034 2216 
Q 1584 2216 1326 1975 
Q 1069 1734 1069 1313 
Q 1069 891 1326 650 
Q 1584 409 2034 409 
Q 2484 409 2743 651 
Q 3003 894 3003 1313 
Q 3003 1734 2745 1975 
Q 2488 2216 2034 2216 
z
M 1403 2484 
Q 997 2584 770 2862 
Q 544 3141 544 3541 
Q 544 4100 942 4425 
Q 1341 4750 2034 4750 
Q 2731 4750 3128 4425 
Q 3525 4100 3525 3541 
Q 3525 3141 3298 2862 
Q 3072 2584 2669 2484 
Q 3125 2378 3379 2068 
Q 3634 1759 3634 1313 
Q 3634 634 3220 271 
Q 2806 -91 2034 -91 
Q 1263 -91 848 271 
Q 434 634 434 1313 
Q 434 1759 690 2068 
Q 947 2378 1403 2484 
z
M 1172 3481 
Q 1172 3119 1398 2916 
Q 1625 2713 2034 2713 
Q 2441 2713 2670 2916 
Q 2900 3119 2900 3481 
Q 2900 3844 2670 4047 
Q 2441 4250 2034 4250 
Q 1625 4250 1398 4047 
Q 1172 3844 1172 3481 
z
" transform="scale(0.015625)"/>
       </defs>
       <use xlink:href="#DejaVuSans-38"/>
       <use xlink:href="#DejaVuSans-30" x="63.623047"/>
      </g>
     </g>
    </g>
    <g id="xtick_6">
     <g id="line2d_11">
      <path d="M 398.487273 307.584 
L 398.487273 41.472 
" clip-path="url(#p06acf9a0e5)" style="fill: none; stroke-dasharray: 0.8,1.32; stroke-dashoffset: 0; stroke: #909090; stroke-width: 0.8"/>
     </g>
     <g id="line2d_12">
      <g>
       <use xlink:href="#m136f195bfe" x="398.487273" y="307.584" style="stroke: #000000; stroke-width: 0.8"/>
      </g>
     </g>
     <g id="text_6">
      <!-- 100 -->
      <g transform="translate(388.943523 322.182437)scale(0.1 -0.1)">
       <defs>
        <path id="DejaVuSans-31" d="M 794 531 
L 1825 531 
L 1825 4091 
L 703 3866 
L 703 4441 
L 1819 4666 
L 2450 4666 
L 2450 531 
L 3481 531 
L 3481 0 
L 794 0 
L 794 531 
z
" transform="scale(0.015625)"/>
       </defs>
       <use xlink:href="#DejaVuSans-31"/>
       <use xlink:href="#DejaVuSans-30" x="63.623047"/>
       <use xlink:href="#DejaVuSans-30" x="127.246094"/>
      </g>
     </g>
    </g>
    <g id="text_7">
     <!-- Episodes -->
     <g transform="translate(213.917812 335.860562)scale(0.1 -0.1)">
      <defs>
       <path id="DejaVuSans-45" d="M 628 4666 
L 3578 4666 
L 3578 4134 
L 1259 4134 
L 1259 2753 
L 3481 2753 
L 3481 2222 
L 1259 2222 
L 1259 531 
L 3634 531 
L 3634 0 
L 628 0 
L 628 4666 
z
" transform="scale(0.015625)"/>
       <path id="DejaVuSans-70" d="M 1159 525 
L 1159 -1331 
L 581 -1331 
L 581 3500 
L 1159 3500 
L 1159 2969 
Q 1341 3281 1617 3432 
Q 1894 3584 2278 3584 
Q 2916 3584 3314 3078 
Q 3713 2572 3713 1747 
Q 3713 922 3314 415 
Q 2916 -91 2278 -91 
Q 1894 -91 1617 61 
Q 1341 213 1159 525 
z
M 3116 1747 
Q 3116 2381 2855 2742 
Q 2594 3103 2138 3103 
Q 1681 3103 1420 2742 
Q 1159 2381 1159 1747 
Q 1159 1113 1420 752 
Q 1681 391 2138 391 
Q 2594 391 2855 752 
Q 3116 1113 3116 1747 
z
" transform="scale(0.015625)"/>
       <path id="DejaVuSans-69" d="M 603 3500 
L 1178 3500 
L 1178 0 
L 603 0 
L 603 3500 
z
M 603 4863 
L 1178 4863 
L 1178 4134 
L 603 4134 
L 603 4863 
z
" transform="scale(0.015625)"/>
       <path id="DejaVuSans-73" d="M 2834 3397 
L 2834 2853 
Q 2591 2978 2328 3040 
Q 2066 3103 1784 3103 
Q 1356 3103 1142 2972 
Q 928 2841 928 2578 
Q 928 2378 1081 2264 
Q 1234 2150 1697 2047 
L 1894 2003 
Q 2506 1872 2764 1633 
Q 3022 1394 3022 966 
Q 3022 478 2636 193 
Q 2250 -91 1575 -91 
Q 1294 -91 989 -36 
Q 684 19 347 128 
L 347 722 
Q 666 556 975 473 
Q 1284 391 1588 391 
Q 1994 391 2212 530 
Q 2431 669 2431 922 
Q 2431 1156 2273 1281 
Q 2116 1406 1581 1522 
L 1381 1569 
Q 847 1681 609 1914 
Q 372 2147 372 2553 
Q 372 3047 722 3315 
Q 1072 3584 1716 3584 
Q 2034 3584 2315 3537 
Q 2597 3491 2834 3397 
z
" transform="scale(0.015625)"/>
       <path id="DejaVuSans-6f" d="M 1959 3097 
Q 1497 3097 1228 2736 
Q 959 2375 959 1747 
Q 959 1119 1226 758 
Q 1494 397 1959 397 
Q 2419 397 2687 759 
Q 2956 1122 2956 1747 
Q 2956 2369 2687 2733 
Q 2419 3097 1959 3097 
z
M 1959 3584 
Q 2709 3584 3137 3096 
Q 3566 2609 3566 1747 
Q 3566 888 3137 398 
Q 2709 -91 1959 -91 
Q 1206 -91 779 398 
Q 353 888 353 1747 
Q 353 2609 779 3096 
Q 1206 3584 1959 3584 
z
" transform="scale(0.015625)"/>
       <path id="DejaVuSans-64" d="M 2906 2969 
L 2906 4863 
L 3481 4863 
L 3481 0 
L 2906 0 
L 2906 525 
Q 2725 213 2448 61 
Q 2172 -91 1784 -91 
Q 1150 -91 751 415 
Q 353 922 353 1747 
Q 353 2572 751 3078 
Q 1150 3584 1784 3584 
Q 2172 3584 2448 3432 
Q 2725 3281 2906 2969 
z
M 947 1747 
Q 947 1113 1208 752 
Q 1469 391 1925 391 
Q 2381 391 2643 752 
Q 2906 1113 2906 1747 
Q 2906 2381 2643 2742 
Q 2381 3103 1925 3103 
Q 1469 3103 1208 2742 
Q 947 2381 947 1747 
z
" transform="scale(0.015625)"/>
       <path id="DejaVuSans-65" d="M 3597 1894 
L 3597 1613 
L 953 1613 
Q 991 1019 1311 708 
Q 1631 397 2203 397 
Q 2534 397 2845 478 
Q 3156 559 3463 722 
L 3463 178 
Q 3153 47 2828 -22 
Q 2503 -91 2169 -91 
Q 1331 -91 842 396 
Q 353 884 353 1716 
Q 353 2575 817 3079 
Q 1281 3584 2069 3584 
Q 2775 3584 3186 3129 
Q 3597 2675 3597 1894 
z
M 3022 2063 
Q 3016 2534 2758 2815 
Q 2500 3097 2075 3097 
Q 1594 3097 1305 2825 
Q 1016 2553 972 2059 
L 3022 2063 
z
" transform="scale(0.015625)"/>
      </defs>
      <use xlink:href="#DejaVuSans-45"/>
      <use xlink:href="#DejaVuSans-70" x="63.183594"/>
      <use xlink:href="#DejaVuSans-69" x="126.660156"/>
      <use xlink:href="#DejaVuSans-73" x="154.443359"/>
      <use xlink:href="#DejaVuSans-6f" x="206.542969"/>
      <use xlink:href="#DejaVuSans-64" x="267.724609"/>
      <use xlink:href="#DejaVuSans-65" x="331.201172"/>
      <use xlink:href="#DejaVuSans-73" x="392.724609"/>
     </g>
    </g>
   </g>
   <g id="matplotlib.axis_2">
    <g id="ytick_1">
     <g id="line2d_13">
      <path d="M 57.6 304.810543 
L 414.72 304.810543 
" clip-path="url(#p06acf9a0e5)" style="fill: none; stroke-dasharray: 0.8,1.32; stroke-dashoffset: 0; stroke: #909090; stroke-width: 0.8"/>
     </g>
     <g id="line2d_14">
      <defs>
       <path id="mbd8d827379" d="M 0 0 
L -3.5 0 
" style="stroke: #000000; stroke-width: 0.8"/>
      </defs>
      <g>
       <use xlink:href="#mbd8d827379" x="57.6" y="304.810543" style="stroke: #000000; stroke-width: 0.8"/>
      </g>
     </g>
     <g id="text_8">
      <!-- 0 -->
      <g transform="translate(44.2375 308.609762)scale(0.1 -0.1)">
       <use xlink:href="#DejaVuSans-30"/>
      </g>
     </g>
    </g>
    <g id="ytick_2">
     <g id="line2d_15">
      <path d="M 57.6 258.197827 
L 414.72 258.197827 
" clip-path="url(#p06acf9a0e5)" style="fill: none; stroke-dasharray: 0.8,1.32; stroke-dashoffset: 0; stroke: #909090; stroke-width: 0.8"/>
     </g>
     <g id="line2d_16">
      <g>
       <use xlink:href="#mbd8d827379" x="57.6" y="258.197827" style="stroke: #000000; stroke-width: 0.8"/>
      </g>
     </g>
     <g id="text_9">
      <!-- 100 -->
      <g transform="translate(31.5125 261.997045)scale(0.1 -0.1)">
       <use xlink:href="#DejaVuSans-31"/>
       <use xlink:href="#DejaVuSans-30" x="63.623047"/>
       <use xlink:href="#DejaVuSans-30" x="127.246094"/>
      </g>
     </g>
    </g>
    <g id="ytick_3">
     <g id="line2d_17">
      <path d="M 57.6 211.58511 
L 414.72 211.58511 
" clip-path="url(#p06acf9a0e5)" style="fill: none; stroke-dasharray: 0.8,1.32; stroke-dashoffset: 0; stroke: #909090; stroke-width: 0.8"/>
     </g>
     <g id="line2d_18">
      <g>
       <use xlink:href="#mbd8d827379" x="57.6" y="211.58511" style="stroke: #000000; stroke-width: 0.8"/>
      </g>
     </g>
     <g id="text_10">
      <!-- 200 -->
      <g transform="translate(31.5125 215.384329)scale(0.1 -0.1)">
       <use xlink:href="#DejaVuSans-32"/>
       <use xlink:href="#DejaVuSans-30" x="63.623047"/>
       <use xlink:href="#DejaVuSans-30" x="127.246094"/>
      </g>
     </g>
    </g>
    <g id="ytick_4">
     <g id="line2d_19">
      <path d="M 57.6 164.972393 
L 414.72 164.972393 
" clip-path="url(#p06acf9a0e5)" style="fill: none; stroke-dasharray: 0.8,1.32; stroke-dashoffset: 0; stroke: #909090; stroke-width: 0.8"/>
     </g>
     <g id="line2d_20">
      <g>
       <use xlink:href="#mbd8d827379" x="57.6" y="164.972393" style="stroke: #000000; stroke-width: 0.8"/>
      </g>
     </g>
     <g id="text_11">
      <!-- 300 -->
      <g transform="translate(31.5125 168.771612)scale(0.1 -0.1)">
       <defs>
        <path id="DejaVuSans-33" d="M 2597 2516 
Q 3050 2419 3304 2112 
Q 3559 1806 3559 1356 
Q 3559 666 3084 287 
Q 2609 -91 1734 -91 
Q 1441 -91 1130 -33 
Q 819 25 488 141 
L 488 750 
Q 750 597 1062 519 
Q 1375 441 1716 441 
Q 2309 441 2620 675 
Q 2931 909 2931 1356 
Q 2931 1769 2642 2001 
Q 2353 2234 1838 2234 
L 1294 2234 
L 1294 2753 
L 1863 2753 
Q 2328 2753 2575 2939 
Q 2822 3125 2822 3475 
Q 2822 3834 2567 4026 
Q 2313 4219 1838 4219 
Q 1578 4219 1281 4162 
Q 984 4106 628 3988 
L 628 4550 
Q 988 4650 1302 4700 
Q 1616 4750 1894 4750 
Q 2613 4750 3031 4423 
Q 3450 4097 3450 3541 
Q 3450 3153 3228 2886 
Q 3006 2619 2597 2516 
z
" transform="scale(0.015625)"/>
       </defs>
       <use xlink:href="#DejaVuSans-33"/>
       <use xlink:href="#DejaVuSans-30" x="63.623047"/>
       <use xlink:href="#DejaVuSans-30" x="127.246094"/>
      </g>
     </g>
    </g>
    <g id="ytick_5">
     <g id="line2d_21">
      <path d="M 57.6 118.359676 
L 414.72 118.359676 
" clip-path="url(#p06acf9a0e5)" style="fill: none; stroke-dasharray: 0.8,1.32; stroke-dashoffset: 0; stroke: #909090; stroke-width: 0.8"/>
     </g>
     <g id="line2d_22">
      <g>
       <use xlink:href="#mbd8d827379" x="57.6" y="118.359676" style="stroke: #000000; stroke-width: 0.8"/>
      </g>
     </g>
     <g id="text_12">
      <!-- 400 -->
      <g transform="translate(31.5125 122.158895)scale(0.1 -0.1)">
       <use xlink:href="#DejaVuSans-34"/>
       <use xlink:href="#DejaVuSans-30" x="63.623047"/>
       <use xlink:href="#DejaVuSans-30" x="127.246094"/>
      </g>
     </g>
    </g>
    <g id="ytick_6">
     <g id="line2d_23">
      <path d="M 57.6 71.74696 
L 414.72 71.74696 
" clip-path="url(#p06acf9a0e5)" style="fill: none; stroke-dasharray: 0.8,1.32; stroke-dashoffset: 0; stroke: #909090; stroke-width: 0.8"/>
     </g>
     <g id="line2d_24">
      <g>
       <use xlink:href="#mbd8d827379" x="57.6" y="71.74696" style="stroke: #000000; stroke-width: 0.8"/>
      </g>
     </g>
     <g id="text_13">
      <!-- 500 -->
      <g transform="translate(31.5125 75.546178)scale(0.1 -0.1)">
       <defs>
        <path id="DejaVuSans-35" d="M 691 4666 
L 3169 4666 
L 3169 4134 
L 1269 4134 
L 1269 2991 
Q 1406 3038 1543 3061 
Q 1681 3084 1819 3084 
Q 2600 3084 3056 2656 
Q 3513 2228 3513 1497 
Q 3513 744 3044 326 
Q 2575 -91 1722 -91 
Q 1428 -91 1123 -41 
Q 819 9 494 109 
L 494 744 
Q 775 591 1075 516 
Q 1375 441 1709 441 
Q 2250 441 2565 725 
Q 2881 1009 2881 1497 
Q 2881 1984 2565 2268 
Q 2250 2553 1709 2553 
Q 1456 2553 1204 2497 
Q 953 2441 691 2322 
L 691 4666 
z
" transform="scale(0.015625)"/>
       </defs>
       <use xlink:href="#DejaVuSans-35"/>
       <use xlink:href="#DejaVuSans-30" x="63.623047"/>
       <use xlink:href="#DejaVuSans-30" x="127.246094"/>
      </g>
     </g>
    </g>
    <g id="text_14">
     <!-- Time (msec) -->
     <g transform="translate(25.432812 205.553)rotate(-90)scale(0.1 -0.1)">
      <defs>
       <path id="DejaVuSans-54" d="M -19 4666 
L 3928 4666 
L 3928 4134 
L 2272 4134 
L 2272 0 
L 1638 0 
L 1638 4134 
L -19 4134 
L -19 4666 
z
" transform="scale(0.015625)"/>
       <path id="DejaVuSans-6d" d="M 3328 2828 
Q 3544 3216 3844 3400 
Q 4144 3584 4550 3584 
Q 5097 3584 5394 3201 
Q 5691 2819 5691 2113 
L 5691 0 
L 5113 0 
L 5113 2094 
Q 5113 2597 4934 2840 
Q 4756 3084 4391 3084 
Q 3944 3084 3684 2787 
Q 3425 2491 3425 1978 
L 3425 0 
L 2847 0 
L 2847 2094 
Q 2847 2600 2669 2842 
Q 2491 3084 2119 3084 
Q 1678 3084 1418 2786 
Q 1159 2488 1159 1978 
L 1159 0 
L 581 0 
L 581 3500 
L 1159 3500 
L 1159 2956 
Q 1356 3278 1631 3431 
Q 1906 3584 2284 3584 
Q 2666 3584 2933 3390 
Q 3200 3197 3328 2828 
z
" transform="scale(0.015625)"/>
       <path id="DejaVuSans-20" transform="scale(0.015625)"/>
       <path id="DejaVuSans-28" d="M 1984 4856 
Q 1566 4138 1362 3434 
Q 1159 2731 1159 2009 
Q 1159 1288 1364 580 
Q 1569 -128 1984 -844 
L 1484 -844 
Q 1016 -109 783 600 
Q 550 1309 550 2009 
Q 550 2706 781 3412 
Q 1013 4119 1484 4856 
L 1984 4856 
z
" transform="scale(0.015625)"/>
       <path id="DejaVuSans-63" d="M 3122 3366 
L 3122 2828 
Q 2878 2963 2633 3030 
Q 2388 3097 2138 3097 
Q 1578 3097 1268 2742 
Q 959 2388 959 1747 
Q 959 1106 1268 751 
Q 1578 397 2138 397 
Q 2388 397 2633 464 
Q 2878 531 3122 666 
L 3122 134 
Q 2881 22 2623 -34 
Q 2366 -91 2075 -91 
Q 1284 -91 818 406 
Q 353 903 353 1747 
Q 353 2603 823 3093 
Q 1294 3584 2113 3584 
Q 2378 3584 2631 3529 
Q 2884 3475 3122 3366 
z
" transform="scale(0.015625)"/>
       <path id="DejaVuSans-29" d="M 513 4856 
L 1013 4856 
Q 1481 4119 1714 3412 
Q 1947 2706 1947 2009 
Q 1947 1309 1714 600 
Q 1481 -109 1013 -844 
L 513 -844 
Q 928 -128 1133 580 
Q 1338 1288 1338 2009 
Q 1338 2731 1133 3434 
Q 928 4138 513 4856 
z
" transform="scale(0.015625)"/>
      </defs>
      <use xlink:href="#DejaVuSans-54"/>
      <use xlink:href="#DejaVuSans-69" x="57.958984"/>
      <use xlink:href="#DejaVuSans-6d" x="85.742188"/>
      <use xlink:href="#DejaVuSans-65" x="183.154297"/>
      <use xlink:href="#DejaVuSans-20" x="244.677734"/>
      <use xlink:href="#DejaVuSans-28" x="276.464844"/>
      <use xlink:href="#DejaVuSans-6d" x="315.478516"/>
      <use xlink:href="#DejaVuSans-73" x="412.890625"/>
      <use xlink:href="#DejaVuSans-65" x="464.990234"/>
      <use xlink:href="#DejaVuSans-63" x="526.513672"/>
      <use xlink:href="#DejaVuSans-29" x="581.494141"/>
     </g>
    </g>
   </g>
   <g id="line2d_25">
    <path d="M 73.832727 295.488 
L 77.145529 293.157364 
L 80.45833 294.089618 
L 83.771132 290.360601 
L 87.083933 286.631584 
L 90.396735 284.300948 
L 93.709536 281.038058 
L 97.022338 280.105803 
L 100.335139 278.707422 
L 103.647941 275.910659 
L 106.960742 269.851006 
L 110.273544 263.325225 
L 113.586345 266.121988 
L 116.899147 253.536555 
L 120.211948 237.688231 
L 123.52475 247.476902 
L 126.837551 250.273665 
L 130.150353 248.409156 
L 133.463154 235.823723 
L 136.775955 248.409156 
L 140.088757 209.720601 
L 143.401558 181.752971 
L 146.71436 232.094705 
L 150.027161 245.146266 
L 153.339963 222.772162 
L 156.652764 217.178636 
L 159.965566 238.154358 
L 163.278367 220.441526 
L 166.591169 212.051237 
L 169.90397 218.577017 
L 173.216772 214.381873 
L 176.529573 201.796439 
L 179.842375 183.61748 
L 183.155176 227.433434 
L 186.467978 224.636671 
L 189.780779 169.167538 
L 193.093581 229.297942 
L 196.406382 225.568925 
L 199.719184 238.154358 
L 203.031985 163.107884 
L 206.344787 174.761064 
L 209.657588 187.346497 
L 212.97039 201.796439 
L 216.283191 228.365688 
L 219.595993 235.357595 
L 222.908794 233.493087 
L 226.221596 196.66904 
L 229.534397 193.872277 
L 232.847199 53.568 
L 236.16 205.525457 
L 239.472801 179.888462 
L 242.785603 186.88037 
L 246.098404 200.864185 
L 249.411206 214.381873 
L 252.724007 175.227191 
L 256.036809 215.780254 
L 259.34961 128.148347 
L 262.662412 106.24037 
L 265.975213 196.66904 
L 269.288015 205.059329 
L 272.600816 209.254474 
L 275.913618 180.35459 
L 279.226419 197.135168 
L 282.539221 193.40615 
L 285.852022 182.685225 
L 289.164824 213.915746 
L 292.477625 152.853087 
L 295.790427 118.825803 
L 299.103228 137.937017 
L 302.41603 95.519445 
L 305.728831 182.685225 
L 309.041633 201.330312 
L 312.354434 199.465803 
L 315.667236 140.73378 
L 318.980037 179.422335 
L 322.292839 64.755052 
L 325.60564 139.801526 
L 328.918442 209.254474 
L 332.231243 178.023954 
L 335.544045 84.332393 
L 338.856846 209.720601 
L 342.169647 196.66904 
L 345.482449 181.752971 
L 348.79525 200.398058 
L 352.108052 105.774243 
L 355.420853 157.514358 
L 358.733655 155.64985 
L 362.046456 151.454705 
L 365.359258 152.38696 
L 368.672059 173.362682 
L 371.984861 169.167538 
L 375.297662 175.693318 
L 378.610464 173.828809 
L 381.923265 115.562913 
L 385.236067 131.411237 
L 388.548868 136.072509 
L 391.86167 112.300023 
L 395.174471 74.077595 
L 398.487273 149.590197 
" clip-path="url(#p06acf9a0e5)" style="fill: none; stroke: #0000ff; stroke-linecap: square"/>
    <defs>
     <path id="m1f7d0ed493" d="M 0 1 
C 0.265203 1 0.51958 0.894634 0.707107 0.707107 
C 0.894634 0.51958 1 0.265203 1 0 
C 1 -0.265203 0.894634 -0.51958 0.707107 -0.707107 
C 0.51958 -0.894634 0.265203 -1 0 -1 
C -0.265203 -1 -0.51958 -0.894634 -0.707107 -0.707107 
C -0.894634 -0.51958 -1 -0.265203 -1 0 
C -1 0.265203 -0.894634 0.51958 -0.707107 0.707107 
C -0.51958 0.894634 -0.265203 1 0 1 
z
" style="stroke: #0000ff"/>
    </defs>
    <g clip-path="url(#p06acf9a0e5)">
     <use xlink:href="#m1f7d0ed493" x="73.832727" y="295.488" style="fill: #0000ff; stroke: #0000ff"/>
     <use xlink:href="#m1f7d0ed493" x="77.145529" y="293.157364" style="fill: #0000ff; stroke: #0000ff"/>
     <use xlink:href="#m1f7d0ed493" x="80.45833" y="294.089618" style="fill: #0000ff; stroke: #0000ff"/>
     <use xlink:href="#m1f7d0ed493" x="83.771132" y="290.360601" style="fill: #0000ff; stroke: #0000ff"/>
     <use xlink:href="#m1f7d0ed493" x="87.083933" y="286.631584" style="fill: #0000ff; stroke: #0000ff"/>
     <use xlink:href="#m1f7d0ed493" x="90.396735" y="284.300948" style="fill: #0000ff; stroke: #0000ff"/>
     <use xlink:href="#m1f7d0ed493" x="93.709536" y="281.038058" style="fill: #0000ff; stroke: #0000ff"/>
     <use xlink:href="#m1f7d0ed493" x="97.022338" y="280.105803" style="fill: #0000ff; stroke: #0000ff"/>
     <use xlink:href="#m1f7d0ed493" x="100.335139" y="278.707422" style="fill: #0000ff; stroke: #0000ff"/>
     <use xlink:href="#m1f7d0ed493" x="103.647941" y="275.910659" style="fill: #0000ff; stroke: #0000ff"/>
     <use xlink:href="#m1f7d0ed493" x="106.960742" y="269.851006" style="fill: #0000ff; stroke: #0000ff"/>
     <use xlink:href="#m1f7d0ed493" x="110.273544" y="263.325225" style="fill: #0000ff; stroke: #0000ff"/>
     <use xlink:href="#m1f7d0ed493" x="113.586345" y="266.121988" style="fill: #0000ff; stroke: #0000ff"/>
     <use xlink:href="#m1f7d0ed493" x="116.899147" y="253.536555" style="fill: #0000ff; stroke: #0000ff"/>
     <use xlink:href="#m1f7d0ed493" x="120.211948" y="237.688231" style="fill: #0000ff; stroke: #0000ff"/>
     <use xlink:href="#m1f7d0ed493" x="123.52475" y="247.476902" style="fill: #0000ff; stroke: #0000ff"/>
     <use xlink:href="#m1f7d0ed493" x="126.837551" y="250.273665" style="fill: #0000ff; stroke: #0000ff"/>
     <use xlink:href="#m1f7d0ed493" x="130.150353" y="248.409156" style="fill: #0000ff; stroke: #0000ff"/>
     <use xlink:href="#m1f7d0ed493" x="133.463154" y="235.823723" style="fill: #0000ff; stroke: #0000ff"/>
     <use xlink:href="#m1f7d0ed493" x="136.775955" y="248.409156" style="fill: #0000ff; stroke: #0000ff"/>
     <use xlink:href="#m1f7d0ed493" x="140.088757" y="209.720601" style="fill: #0000ff; stroke: #0000ff"/>
     <use xlink:href="#m1f7d0ed493" x="143.401558" y="181.752971" style="fill: #0000ff; stroke: #0000ff"/>
     <use xlink:href="#m1f7d0ed493" x="146.71436" y="232.094705" style="fill: #0000ff; stroke: #0000ff"/>
     <use xlink:href="#m1f7d0ed493" x="150.027161" y="245.146266" style="fill: #0000ff; stroke: #0000ff"/>
     <use xlink:href="#m1f7d0ed493" x="153.339963" y="222.772162" style="fill: #0000ff; stroke: #0000ff"/>
     <use xlink:href="#m1f7d0ed493" x="156.652764" y="217.178636" style="fill: #0000ff; stroke: #0000ff"/>
     <use xlink:href="#m1f7d0ed493" x="159.965566" y="238.154358" style="fill: #0000ff; stroke: #0000ff"/>
     <use xlink:href="#m1f7d0ed493" x="163.278367" y="220.441526" style="fill: #0000ff; stroke: #0000ff"/>
     <use xlink:href="#m1f7d0ed493" x="166.591169" y="212.051237" style="fill: #0000ff; stroke: #0000ff"/>
     <use xlink:href="#m1f7d0ed493" x="169.90397" y="218.577017" style="fill: #0000ff; stroke: #0000ff"/>
     <use xlink:href="#m1f7d0ed493" x="173.216772" y="214.381873" style="fill: #0000ff; stroke: #0000ff"/>
     <use xlink:href="#m1f7d0ed493" x="176.529573" y="201.796439" style="fill: #0000ff; stroke: #0000ff"/>
     <use xlink:href="#m1f7d0ed493" x="179.842375" y="183.61748" style="fill: #0000ff; stroke: #0000ff"/>
     <use xlink:href="#m1f7d0ed493" x="183.155176" y="227.433434" style="fill: #0000ff; stroke: #0000ff"/>
     <use xlink:href="#m1f7d0ed493" x="186.467978" y="224.636671" style="fill: #0000ff; stroke: #0000ff"/>
     <use xlink:href="#m1f7d0ed493" x="189.780779" y="169.167538" style="fill: #0000ff; stroke: #0000ff"/>
     <use xlink:href="#m1f7d0ed493" x="193.093581" y="229.297942" style="fill: #0000ff; stroke: #0000ff"/>
     <use xlink:href="#m1f7d0ed493" x="196.406382" y="225.568925" style="fill: #0000ff; stroke: #0000ff"/>
     <use xlink:href="#m1f7d0ed493" x="199.719184" y="238.154358" style="fill: #0000ff; stroke: #0000ff"/>
     <use xlink:href="#m1f7d0ed493" x="203.031985" y="163.107884" style="fill: #0000ff; stroke: #0000ff"/>
     <use xlink:href="#m1f7d0ed493" x="206.344787" y="174.761064" style="fill: #0000ff; stroke: #0000ff"/>
     <use xlink:href="#m1f7d0ed493" x="209.657588" y="187.346497" style="fill: #0000ff; stroke: #0000ff"/>
     <use xlink:href="#m1f7d0ed493" x="212.97039" y="201.796439" style="fill: #0000ff; stroke: #0000ff"/>
     <use xlink:href="#m1f7d0ed493" x="216.283191" y="228.365688" style="fill: #0000ff; stroke: #0000ff"/>
     <use xlink:href="#m1f7d0ed493" x="219.595993" y="235.357595" style="fill: #0000ff; stroke: #0000ff"/>
     <use xlink:href="#m1f7d0ed493" x="222.908794" y="233.493087" style="fill: #0000ff; stroke: #0000ff"/>
     <use xlink:href="#m1f7d0ed493" x="226.221596" y="196.66904" style="fill: #0000ff; stroke: #0000ff"/>
     <use xlink:href="#m1f7d0ed493" x="229.534397" y="193.872277" style="fill: #0000ff; stroke: #0000ff"/>
     <use xlink:href="#m1f7d0ed493" x="232.847199" y="53.568" style="fill: #0000ff; stroke: #0000ff"/>
     <use xlink:href="#m1f7d0ed493" x="236.16" y="205.525457" style="fill: #0000ff; stroke: #0000ff"/>
     <use xlink:href="#m1f7d0ed493" x="239.472801" y="179.888462" style="fill: #0000ff; stroke: #0000ff"/>
     <use xlink:href="#m1f7d0ed493" x="242.785603" y="186.88037" style="fill: #0000ff; stroke: #0000ff"/>
     <use xlink:href="#m1f7d0ed493" x="246.098404" y="200.864185" style="fill: #0000ff; stroke: #0000ff"/>
     <use xlink:href="#m1f7d0ed493" x="249.411206" y="214.381873" style="fill: #0000ff; stroke: #0000ff"/>
     <use xlink:href="#m1f7d0ed493" x="252.724007" y="175.227191" style="fill: #0000ff; stroke: #0000ff"/>
     <use xlink:href="#m1f7d0ed493" x="256.036809" y="215.780254" style="fill: #0000ff; stroke: #0000ff"/>
     <use xlink:href="#m1f7d0ed493" x="259.34961" y="128.148347" style="fill: #0000ff; stroke: #0000ff"/>
     <use xlink:href="#m1f7d0ed493" x="262.662412" y="106.24037" style="fill: #0000ff; stroke: #0000ff"/>
     <use xlink:href="#m1f7d0ed493" x="265.975213" y="196.66904" style="fill: #0000ff; stroke: #0000ff"/>
     <use xlink:href="#m1f7d0ed493" x="269.288015" y="205.059329" style="fill: #0000ff; stroke: #0000ff"/>
     <use xlink:href="#m1f7d0ed493" x="272.600816" y="209.254474" style="fill: #0000ff; stroke: #0000ff"/>
     <use xlink:href="#m1f7d0ed493" x="275.913618" y="180.35459" style="fill: #0000ff; stroke: #0000ff"/>
     <use xlink:href="#m1f7d0ed493" x="279.226419" y="197.135168" style="fill: #0000ff; stroke: #0000ff"/>
     <use xlink:href="#m1f7d0ed493" x="282.539221" y="193.40615" style="fill: #0000ff; stroke: #0000ff"/>
     <use xlink:href="#m1f7d0ed493" x="285.852022" y="182.685225" style="fill: #0000ff; stroke: #0000ff"/>
     <use xlink:href="#m1f7d0ed493" x="289.164824" y="213.915746" style="fill: #0000ff; stroke: #0000ff"/>
     <use xlink:href="#m1f7d0ed493" x="292.477625" y="152.853087" style="fill: #0000ff; stroke: #0000ff"/>
     <use xlink:href="#m1f7d0ed493" x="295.790427" y="118.825803" style="fill: #0000ff; stroke: #0000ff"/>
     <use xlink:href="#m1f7d0ed493" x="299.103228" y="137.937017" style="fill: #0000ff; stroke: #0000ff"/>
     <use xlink:href="#m1f7d0ed493" x="302.41603" y="95.519445" style="fill: #0000ff; stroke: #0000ff"/>
     <use xlink:href="#m1f7d0ed493" x="305.728831" y="182.685225" style="fill: #0000ff; stroke: #0000ff"/>
     <use xlink:href="#m1f7d0ed493" x="309.041633" y="201.330312" style="fill: #0000ff; stroke: #0000ff"/>
     <use xlink:href="#m1f7d0ed493" x="312.354434" y="199.465803" style="fill: #0000ff; stroke: #0000ff"/>
     <use xlink:href="#m1f7d0ed493" x="315.667236" y="140.73378" style="fill: #0000ff; stroke: #0000ff"/>
     <use xlink:href="#m1f7d0ed493" x="318.980037" y="179.422335" style="fill: #0000ff; stroke: #0000ff"/>
     <use xlink:href="#m1f7d0ed493" x="322.292839" y="64.755052" style="fill: #0000ff; stroke: #0000ff"/>
     <use xlink:href="#m1f7d0ed493" x="325.60564" y="139.801526" style="fill: #0000ff; stroke: #0000ff"/>
     <use xlink:href="#m1f7d0ed493" x="328.918442" y="209.254474" style="fill: #0000ff; stroke: #0000ff"/>
     <use xlink:href="#m1f7d0ed493" x="332.231243" y="178.023954" style="fill: #0000ff; stroke: #0000ff"/>
     <use xlink:href="#m1f7d0ed493" x="335.544045" y="84.332393" style="fill: #0000ff; stroke: #0000ff"/>
     <use xlink:href="#m1f7d0ed493" x="338.856846" y="209.720601" style="fill: #0000ff; stroke: #0000ff"/>
     <use xlink:href="#m1f7d0ed493" x="342.169647" y="196.66904" style="fill: #0000ff; stroke: #0000ff"/>
     <use xlink:href="#m1f7d0ed493" x="345.482449" y="181.752971" style="fill: #0000ff; stroke: #0000ff"/>
     <use xlink:href="#m1f7d0ed493" x="348.79525" y="200.398058" style="fill: #0000ff; stroke: #0000ff"/>
     <use xlink:href="#m1f7d0ed493" x="352.108052" y="105.774243" style="fill: #0000ff; stroke: #0000ff"/>
     <use xlink:href="#m1f7d0ed493" x="355.420853" y="157.514358" style="fill: #0000ff; stroke: #0000ff"/>
     <use xlink:href="#m1f7d0ed493" x="358.733655" y="155.64985" style="fill: #0000ff; stroke: #0000ff"/>
     <use xlink:href="#m1f7d0ed493" x="362.046456" y="151.454705" style="fill: #0000ff; stroke: #0000ff"/>
     <use xlink:href="#m1f7d0ed493" x="365.359258" y="152.38696" style="fill: #0000ff; stroke: #0000ff"/>
     <use xlink:href="#m1f7d0ed493" x="368.672059" y="173.362682" style="fill: #0000ff; stroke: #0000ff"/>
     <use xlink:href="#m1f7d0ed493" x="371.984861" y="169.167538" style="fill: #0000ff; stroke: #0000ff"/>
     <use xlink:href="#m1f7d0ed493" x="375.297662" y="175.693318" style="fill: #0000ff; stroke: #0000ff"/>
     <use xlink:href="#m1f7d0ed493" x="378.610464" y="173.828809" style="fill: #0000ff; stroke: #0000ff"/>
     <use xlink:href="#m1f7d0ed493" x="381.923265" y="115.562913" style="fill: #0000ff; stroke: #0000ff"/>
     <use xlink:href="#m1f7d0ed493" x="385.236067" y="131.411237" style="fill: #0000ff; stroke: #0000ff"/>
     <use xlink:href="#m1f7d0ed493" x="388.548868" y="136.072509" style="fill: #0000ff; stroke: #0000ff"/>
     <use xlink:href="#m1f7d0ed493" x="391.86167" y="112.300023" style="fill: #0000ff; stroke: #0000ff"/>
     <use xlink:href="#m1f7d0ed493" x="395.174471" y="74.077595" style="fill: #0000ff; stroke: #0000ff"/>
     <use xlink:href="#m1f7d0ed493" x="398.487273" y="149.590197" style="fill: #0000ff; stroke: #0000ff"/>
    </g>
   </g>
   <g id="line2d_26">
    <path d="M 73.832727 295.488 
L 77.145529 293.157364 
L 80.45833 294.089618 
L 83.771132 290.360601 
L 87.083933 286.631584 
L 90.396735 284.300948 
L 93.709536 281.038058 
L 97.022338 280.105803 
L 100.335139 278.707422 
L 103.647941 275.910659 
L 106.960742 269.851006 
L 110.273544 263.325225 
L 113.586345 266.121988 
L 116.899147 253.536555 
L 120.211948 237.688231 
L 123.52475 247.476902 
L 126.837551 250.273665 
L 130.150353 248.409156 
L 133.463154 235.823723 
L 136.775955 248.409156 
L 140.088757 209.720601 
L 143.401558 181.752971 
L 146.71436 232.094705 
L 150.027161 245.146266 
L 153.339963 222.772162 
L 156.652764 217.178636 
L 159.965566 238.154358 
L 163.278367 220.441526 
L 166.591169 212.051237 
L 169.90397 218.577017 
L 173.216772 214.381873 
L 176.529573 201.796439 
L 179.842375 183.61748 
L 183.155176 227.433434 
L 186.467978 224.636671 
L 189.780779 169.167538 
L 193.093581 229.297942 
L 196.406382 225.568925 
L 199.719184 238.154358 
L 203.031985 163.107884 
L 206.344787 174.761064 
L 209.657588 187.346497 
L 212.97039 201.796439 
L 216.283191 228.365688 
L 219.595993 235.357595 
L 222.908794 233.493087 
L 226.221596 196.66904 
L 229.534397 193.872277 
L 232.847199 53.568 
L 236.16 205.525457 
L 239.472801 179.888462 
L 242.785603 186.88037 
L 246.098404 200.864185 
L 249.411206 214.381873 
L 252.724007 175.227191 
L 256.036809 215.780254 
L 259.34961 128.148347 
L 262.662412 106.24037 
L 265.975213 196.66904 
L 269.288015 205.059329 
L 272.600816 209.254474 
L 275.913618 180.35459 
L 279.226419 197.135168 
L 282.539221 193.40615 
L 285.852022 182.685225 
L 289.164824 213.915746 
L 292.477625 152.853087 
L 295.790427 118.825803 
L 299.103228 137.937017 
L 302.41603 95.519445 
L 305.728831 182.685225 
L 309.041633 201.330312 
L 312.354434 199.465803 
L 315.667236 140.73378 
L 318.980037 179.422335 
L 322.292839 64.755052 
L 325.60564 139.801526 
L 328.918442 209.254474 
L 332.231243 178.023954 
L 335.544045 84.332393 
L 338.856846 209.720601 
L 342.169647 196.66904 
L 345.482449 181.752971 
L 348.79525 200.398058 
L 352.108052 105.774243 
L 355.420853 157.514358 
L 358.733655 155.64985 
L 362.046456 151.454705 
L 365.359258 152.38696 
L 368.672059 173.362682 
L 371.984861 169.167538 
L 375.297662 175.693318 
L 378.610464 173.828809 
L 381.923265 115.562913 
L 385.236067 131.411237 
L 388.548868 136.072509 
L 391.86167 112.300023 
L 395.174471 74.077595 
L 398.487273 149.590197 
" clip-path="url(#p06acf9a0e5)" style="fill: none; stroke: #ff0000; stroke-linecap: square"/>
    <defs>
     <path id="m4a3d016ae8" d="M 0 1 
C 0.265203 1 0.51958 0.894634 0.707107 0.707107 
C 0.894634 0.51958 1 0.265203 1 0 
C 1 -0.265203 0.894634 -0.51958 0.707107 -0.707107 
C 0.51958 -0.894634 0.265203 -1 0 -1 
C -0.265203 -1 -0.51958 -0.894634 -0.707107 -0.707107 
C -0.894634 -0.51958 -1 -0.265203 -1 0 
C -1 0.265203 -0.894634 0.51958 -0.707107 0.707107 
C -0.51958 0.894634 -0.265203 1 0 1 
z
" style="stroke: #ff0000"/>
    </defs>
    <g clip-path="url(#p06acf9a0e5)">
     <use xlink:href="#m4a3d016ae8" x="73.832727" y="295.488" style="fill: #ff0000; stroke: #ff0000"/>
     <use xlink:href="#m4a3d016ae8" x="77.145529" y="293.157364" style="fill: #ff0000; stroke: #ff0000"/>
     <use xlink:href="#m4a3d016ae8" x="80.45833" y="294.089618" style="fill: #ff0000; stroke: #ff0000"/>
     <use xlink:href="#m4a3d016ae8" x="83.771132" y="290.360601" style="fill: #ff0000; stroke: #ff0000"/>
     <use xlink:href="#m4a3d016ae8" x="87.083933" y="286.631584" style="fill: #ff0000; stroke: #ff0000"/>
     <use xlink:href="#m4a3d016ae8" x="90.396735" y="284.300948" style="fill: #ff0000; stroke: #ff0000"/>
     <use xlink:href="#m4a3d016ae8" x="93.709536" y="281.038058" style="fill: #ff0000; stroke: #ff0000"/>
     <use xlink:href="#m4a3d016ae8" x="97.022338" y="280.105803" style="fill: #ff0000; stroke: #ff0000"/>
     <use xlink:href="#m4a3d016ae8" x="100.335139" y="278.707422" style="fill: #ff0000; stroke: #ff0000"/>
     <use xlink:href="#m4a3d016ae8" x="103.647941" y="275.910659" style="fill: #ff0000; stroke: #ff0000"/>
     <use xlink:href="#m4a3d016ae8" x="106.960742" y="269.851006" style="fill: #ff0000; stroke: #ff0000"/>
     <use xlink:href="#m4a3d016ae8" x="110.273544" y="263.325225" style="fill: #ff0000; stroke: #ff0000"/>
     <use xlink:href="#m4a3d016ae8" x="113.586345" y="266.121988" style="fill: #ff0000; stroke: #ff0000"/>
     <use xlink:href="#m4a3d016ae8" x="116.899147" y="253.536555" style="fill: #ff0000; stroke: #ff0000"/>
     <use xlink:href="#m4a3d016ae8" x="120.211948" y="237.688231" style="fill: #ff0000; stroke: #ff0000"/>
     <use xlink:href="#m4a3d016ae8" x="123.52475" y="247.476902" style="fill: #ff0000; stroke: #ff0000"/>
     <use xlink:href="#m4a3d016ae8" x="126.837551" y="250.273665" style="fill: #ff0000; stroke: #ff0000"/>
     <use xlink:href="#m4a3d016ae8" x="130.150353" y="248.409156" style="fill: #ff0000; stroke: #ff0000"/>
     <use xlink:href="#m4a3d016ae8" x="133.463154" y="235.823723" style="fill: #ff0000; stroke: #ff0000"/>
     <use xlink:href="#m4a3d016ae8" x="136.775955" y="248.409156" style="fill: #ff0000; stroke: #ff0000"/>
     <use xlink:href="#m4a3d016ae8" x="140.088757" y="209.720601" style="fill: #ff0000; stroke: #ff0000"/>
     <use xlink:href="#m4a3d016ae8" x="143.401558" y="181.752971" style="fill: #ff0000; stroke: #ff0000"/>
     <use xlink:href="#m4a3d016ae8" x="146.71436" y="232.094705" style="fill: #ff0000; stroke: #ff0000"/>
     <use xlink:href="#m4a3d016ae8" x="150.027161" y="245.146266" style="fill: #ff0000; stroke: #ff0000"/>
     <use xlink:href="#m4a3d016ae8" x="153.339963" y="222.772162" style="fill: #ff0000; stroke: #ff0000"/>
     <use xlink:href="#m4a3d016ae8" x="156.652764" y="217.178636" style="fill: #ff0000; stroke: #ff0000"/>
     <use xlink:href="#m4a3d016ae8" x="159.965566" y="238.154358" style="fill: #ff0000; stroke: #ff0000"/>
     <use xlink:href="#m4a3d016ae8" x="163.278367" y="220.441526" style="fill: #ff0000; stroke: #ff0000"/>
     <use xlink:href="#m4a3d016ae8" x="166.591169" y="212.051237" style="fill: #ff0000; stroke: #ff0000"/>
     <use xlink:href="#m4a3d016ae8" x="169.90397" y="218.577017" style="fill: #ff0000; stroke: #ff0000"/>
     <use xlink:href="#m4a3d016ae8" x="173.216772" y="214.381873" style="fill: #ff0000; stroke: #ff0000"/>
     <use xlink:href="#m4a3d016ae8" x="176.529573" y="201.796439" style="fill: #ff0000; stroke: #ff0000"/>
     <use xlink:href="#m4a3d016ae8" x="179.842375" y="183.61748" style="fill: #ff0000; stroke: #ff0000"/>
     <use xlink:href="#m4a3d016ae8" x="183.155176" y="227.433434" style="fill: #ff0000; stroke: #ff0000"/>
     <use xlink:href="#m4a3d016ae8" x="186.467978" y="224.636671" style="fill: #ff0000; stroke: #ff0000"/>
     <use xlink:href="#m4a3d016ae8" x="189.780779" y="169.167538" style="fill: #ff0000; stroke: #ff0000"/>
     <use xlink:href="#m4a3d016ae8" x="193.093581" y="229.297942" style="fill: #ff0000; stroke: #ff0000"/>
     <use xlink:href="#m4a3d016ae8" x="196.406382" y="225.568925" style="fill: #ff0000; stroke: #ff0000"/>
     <use xlink:href="#m4a3d016ae8" x="199.719184" y="238.154358" style="fill: #ff0000; stroke: #ff0000"/>
     <use xlink:href="#m4a3d016ae8" x="203.031985" y="163.107884" style="fill: #ff0000; stroke: #ff0000"/>
     <use xlink:href="#m4a3d016ae8" x="206.344787" y="174.761064" style="fill: #ff0000; stroke: #ff0000"/>
     <use xlink:href="#m4a3d016ae8" x="209.657588" y="187.346497" style="fill: #ff0000; stroke: #ff0000"/>
     <use xlink:href="#m4a3d016ae8" x="212.97039" y="201.796439" style="fill: #ff0000; stroke: #ff0000"/>
     <use xlink:href="#m4a3d016ae8" x="216.283191" y="228.365688" style="fill: #ff0000; stroke: #ff0000"/>
     <use xlink:href="#m4a3d016ae8" x="219.595993" y="235.357595" style="fill: #ff0000; stroke: #ff0000"/>
     <use xlink:href="#m4a3d016ae8" x="222.908794" y="233.493087" style="fill: #ff0000; stroke: #ff0000"/>
     <use xlink:href="#m4a3d016ae8" x="226.221596" y="196.66904" style="fill: #ff0000; stroke: #ff0000"/>
     <use xlink:href="#m4a3d016ae8" x="229.534397" y="193.872277" style="fill: #ff0000; stroke: #ff0000"/>
     <use xlink:href="#m4a3d016ae8" x="232.847199" y="53.568" style="fill: #ff0000; stroke: #ff0000"/>
     <use xlink:href="#m4a3d016ae8" x="236.16" y="205.525457" style="fill: #ff0000; stroke: #ff0000"/>
     <use xlink:href="#m4a3d016ae8" x="239.472801" y="179.888462" style="fill: #ff0000; stroke: #ff0000"/>
     <use xlink:href="#m4a3d016ae8" x="242.785603" y="186.88037" style="fill: #ff0000; stroke: #ff0000"/>
     <use xlink:href="#m4a3d016ae8" x="246.098404" y="200.864185" style="fill: #ff0000; stroke: #ff0000"/>
     <use xlink:href="#m4a3d016ae8" x="249.411206" y="214.381873" style="fill: #ff0000; stroke: #ff0000"/>
     <use xlink:href="#m4a3d016ae8" x="252.724007" y="175.227191" style="fill: #ff0000; stroke: #ff0000"/>
     <use xlink:href="#m4a3d016ae8" x="256.036809" y="215.780254" style="fill: #ff0000; stroke: #ff0000"/>
     <use xlink:href="#m4a3d016ae8" x="259.34961" y="128.148347" style="fill: #ff0000; stroke: #ff0000"/>
     <use xlink:href="#m4a3d016ae8" x="262.662412" y="106.24037" style="fill: #ff0000; stroke: #ff0000"/>
     <use xlink:href="#m4a3d016ae8" x="265.975213" y="196.66904" style="fill: #ff0000; stroke: #ff0000"/>
     <use xlink:href="#m4a3d016ae8" x="269.288015" y="205.059329" style="fill: #ff0000; stroke: #ff0000"/>
     <use xlink:href="#m4a3d016ae8" x="272.600816" y="209.254474" style="fill: #ff0000; stroke: #ff0000"/>
     <use xlink:href="#m4a3d016ae8" x="275.913618" y="180.35459" style="fill: #ff0000; stroke: #ff0000"/>
     <use xlink:href="#m4a3d016ae8" x="279.226419" y="197.135168" style="fill: #ff0000; stroke: #ff0000"/>
     <use xlink:href="#m4a3d016ae8" x="282.539221" y="193.40615" style="fill: #ff0000; stroke: #ff0000"/>
     <use xlink:href="#m4a3d016ae8" x="285.852022" y="182.685225" style="fill: #ff0000; stroke: #ff0000"/>
     <use xlink:href="#m4a3d016ae8" x="289.164824" y="213.915746" style="fill: #ff0000; stroke: #ff0000"/>
     <use xlink:href="#m4a3d016ae8" x="292.477625" y="152.853087" style="fill: #ff0000; stroke: #ff0000"/>
     <use xlink:href="#m4a3d016ae8" x="295.790427" y="118.825803" style="fill: #ff0000; stroke: #ff0000"/>
     <use xlink:href="#m4a3d016ae8" x="299.103228" y="137.937017" style="fill: #ff0000; stroke: #ff0000"/>
     <use xlink:href="#m4a3d016ae8" x="302.41603" y="95.519445" style="fill: #ff0000; stroke: #ff0000"/>
     <use xlink:href="#m4a3d016ae8" x="305.728831" y="182.685225" style="fill: #ff0000; stroke: #ff0000"/>
     <use xlink:href="#m4a3d016ae8" x="309.041633" y="201.330312" style="fill: #ff0000; stroke: #ff0000"/>
     <use xlink:href="#m4a3d016ae8" x="312.354434" y="199.465803" style="fill: #ff0000; stroke: #ff0000"/>
     <use xlink:href="#m4a3d016ae8" x="315.667236" y="140.73378" style="fill: #ff0000; stroke: #ff0000"/>
     <use xlink:href="#m4a3d016ae8" x="318.980037" y="179.422335" style="fill: #ff0000; stroke: #ff0000"/>
     <use xlink:href="#m4a3d016ae8" x="322.292839" y="64.755052" style="fill: #ff0000; stroke: #ff0000"/>
     <use xlink:href="#m4a3d016ae8" x="325.60564" y="139.801526" style="fill: #ff0000; stroke: #ff0000"/>
     <use xlink:href="#m4a3d016ae8" x="328.918442" y="209.254474" style="fill: #ff0000; stroke: #ff0000"/>
     <use xlink:href="#m4a3d016ae8" x="332.231243" y="178.023954" style="fill: #ff0000; stroke: #ff0000"/>
     <use xlink:href="#m4a3d016ae8" x="335.544045" y="84.332393" style="fill: #ff0000; stroke: #ff0000"/>
     <use xlink:href="#m4a3d016ae8" x="338.856846" y="209.720601" style="fill: #ff0000; stroke: #ff0000"/>
     <use xlink:href="#m4a3d016ae8" x="342.169647" y="196.66904" style="fill: #ff0000; stroke: #ff0000"/>
     <use xlink:href="#m4a3d016ae8" x="345.482449" y="181.752971" style="fill: #ff0000; stroke: #ff0000"/>
     <use xlink:href="#m4a3d016ae8" x="348.79525" y="200.398058" style="fill: #ff0000; stroke: #ff0000"/>
     <use xlink:href="#m4a3d016ae8" x="352.108052" y="105.774243" style="fill: #ff0000; stroke: #ff0000"/>
     <use xlink:href="#m4a3d016ae8" x="355.420853" y="157.514358" style="fill: #ff0000; stroke: #ff0000"/>
     <use xlink:href="#m4a3d016ae8" x="358.733655" y="155.64985" style="fill: #ff0000; stroke: #ff0000"/>
     <use xlink:href="#m4a3d016ae8" x="362.046456" y="151.454705" style="fill: #ff0000; stroke: #ff0000"/>
     <use xlink:href="#m4a3d016ae8" x="365.359258" y="152.38696" style="fill: #ff0000; stroke: #ff0000"/>
     <use xlink:href="#m4a3d016ae8" x="368.672059" y="173.362682" style="fill: #ff0000; stroke: #ff0000"/>
     <use xlink:href="#m4a3d016ae8" x="371.984861" y="169.167538" style="fill: #ff0000; stroke: #ff0000"/>
     <use xlink:href="#m4a3d016ae8" x="375.297662" y="175.693318" style="fill: #ff0000; stroke: #ff0000"/>
     <use xlink:href="#m4a3d016ae8" x="378.610464" y="173.828809" style="fill: #ff0000; stroke: #ff0000"/>
     <use xlink:href="#m4a3d016ae8" x="381.923265" y="115.562913" style="fill: #ff0000; stroke: #ff0000"/>
     <use xlink:href="#m4a3d016ae8" x="385.236067" y="131.411237" style="fill: #ff0000; stroke: #ff0000"/>
     <use xlink:href="#m4a3d016ae8" x="388.548868" y="136.072509" style="fill: #ff0000; stroke: #ff0000"/>
     <use xlink:href="#m4a3d016ae8" x="391.86167" y="112.300023" style="fill: #ff0000; stroke: #ff0000"/>
     <use xlink:href="#m4a3d016ae8" x="395.174471" y="74.077595" style="fill: #ff0000; stroke: #ff0000"/>
     <use xlink:href="#m4a3d016ae8" x="398.487273" y="149.590197" style="fill: #ff0000; stroke: #ff0000"/>
    </g>
   </g>
   <g id="line2d_27">
    <path d="M 73.832727 295.488 
L 77.145529 293.157364 
L 80.45833 294.089618 
L 83.771132 290.360601 
L 87.083933 286.631584 
L 90.396735 284.300948 
L 93.709536 281.038058 
L 97.022338 280.105803 
L 100.335139 278.707422 
L 103.647941 275.910659 
L 106.960742 269.851006 
L 110.273544 263.325225 
L 113.586345 266.121988 
L 116.899147 253.536555 
L 120.211948 237.688231 
L 123.52475 247.476902 
L 126.837551 250.273665 
L 130.150353 248.409156 
L 133.463154 235.823723 
L 136.775955 248.409156 
L 140.088757 209.720601 
L 143.401558 181.752971 
L 146.71436 232.094705 
L 150.027161 245.146266 
L 153.339963 222.772162 
L 156.652764 217.178636 
L 159.965566 238.154358 
L 163.278367 220.441526 
L 166.591169 212.051237 
L 169.90397 218.577017 
L 173.216772 214.381873 
L 176.529573 201.796439 
L 179.842375 183.61748 
L 183.155176 227.433434 
L 186.467978 224.636671 
L 189.780779 169.167538 
L 193.093581 229.297942 
L 196.406382 225.568925 
L 199.719184 238.154358 
L 203.031985 163.107884 
L 206.344787 174.761064 
L 209.657588 187.346497 
L 212.97039 201.796439 
L 216.283191 228.365688 
L 219.595993 235.357595 
L 222.908794 233.493087 
L 226.221596 196.66904 
L 229.534397 193.872277 
L 232.847199 53.568 
L 236.16 205.525457 
L 239.472801 179.888462 
L 242.785603 186.88037 
L 246.098404 200.864185 
L 249.411206 214.381873 
L 252.724007 175.227191 
L 256.036809 215.780254 
L 259.34961 128.148347 
L 262.662412 106.24037 
L 265.975213 196.66904 
L 269.288015 205.059329 
L 272.600816 209.254474 
L 275.913618 180.35459 
L 279.226419 197.135168 
L 282.539221 193.40615 
L 285.852022 182.685225 
L 289.164824 213.915746 
L 292.477625 152.853087 
L 295.790427 118.825803 
L 299.103228 137.937017 
L 302.41603 95.519445 
L 305.728831 182.685225 
L 309.041633 201.330312 
L 312.354434 199.465803 
L 315.667236 140.73378 
L 318.980037 179.422335 
L 322.292839 64.755052 
L 325.60564 139.801526 
L 328.918442 209.254474 
L 332.231243 178.023954 
L 335.544045 84.332393 
L 338.856846 209.720601 
L 342.169647 196.66904 
L 345.482449 181.752971 
L 348.79525 200.398058 
L 352.108052 105.774243 
L 355.420853 157.514358 
L 358.733655 155.64985 
L 362.046456 151.454705 
L 365.359258 152.38696 
L 368.672059 173.362682 
L 371.984861 169.167538 
L 375.297662 175.693318 
L 378.610464 173.828809 
L 381.923265 115.562913 
L 385.236067 131.411237 
L 388.548868 136.072509 
L 391.86167 112.300023 
L 395.174471 74.077595 
L 398.487273 149.590197 
" clip-path="url(#p06acf9a0e5)" style="fill: none; stroke: #008000; stroke-linecap: square"/>
    <defs>
     <path id="m030490635c" d="M 0 1 
C 0.265203 1 0.51958 0.894634 0.707107 0.707107 
C 0.894634 0.51958 1 0.265203 1 0 
C 1 -0.265203 0.894634 -0.51958 0.707107 -0.707107 
C 0.51958 -0.894634 0.265203 -1 0 -1 
C -0.265203 -1 -0.51958 -0.894634 -0.707107 -0.707107 
C -0.894634 -0.51958 -1 -0.265203 -1 0 
C -1 0.265203 -0.894634 0.51958 -0.707107 0.707107 
C -0.51958 0.894634 -0.265203 1 0 1 
z
" style="stroke: #008000"/>
    </defs>
    <g clip-path="url(#p06acf9a0e5)">
     <use xlink:href="#m030490635c" x="73.832727" y="295.488" style="fill: #008000; stroke: #008000"/>
     <use xlink:href="#m030490635c" x="77.145529" y="293.157364" style="fill: #008000; stroke: #008000"/>
     <use xlink:href="#m030490635c" x="80.45833" y="294.089618" style="fill: #008000; stroke: #008000"/>
     <use xlink:href="#m030490635c" x="83.771132" y="290.360601" style="fill: #008000; stroke: #008000"/>
     <use xlink:href="#m030490635c" x="87.083933" y="286.631584" style="fill: #008000; stroke: #008000"/>
     <use xlink:href="#m030490635c" x="90.396735" y="284.300948" style="fill: #008000; stroke: #008000"/>
     <use xlink:href="#m030490635c" x="93.709536" y="281.038058" style="fill: #008000; stroke: #008000"/>
     <use xlink:href="#m030490635c" x="97.022338" y="280.105803" style="fill: #008000; stroke: #008000"/>
     <use xlink:href="#m030490635c" x="100.335139" y="278.707422" style="fill: #008000; stroke: #008000"/>
     <use xlink:href="#m030490635c" x="103.647941" y="275.910659" style="fill: #008000; stroke: #008000"/>
     <use xlink:href="#m030490635c" x="106.960742" y="269.851006" style="fill: #008000; stroke: #008000"/>
     <use xlink:href="#m030490635c" x="110.273544" y="263.325225" style="fill: #008000; stroke: #008000"/>
     <use xlink:href="#m030490635c" x="113.586345" y="266.121988" style="fill: #008000; stroke: #008000"/>
     <use xlink:href="#m030490635c" x="116.899147" y="253.536555" style="fill: #008000; stroke: #008000"/>
     <use xlink:href="#m030490635c" x="120.211948" y="237.688231" style="fill: #008000; stroke: #008000"/>
     <use xlink:href="#m030490635c" x="123.52475" y="247.476902" style="fill: #008000; stroke: #008000"/>
     <use xlink:href="#m030490635c" x="126.837551" y="250.273665" style="fill: #008000; stroke: #008000"/>
     <use xlink:href="#m030490635c" x="130.150353" y="248.409156" style="fill: #008000; stroke: #008000"/>
     <use xlink:href="#m030490635c" x="133.463154" y="235.823723" style="fill: #008000; stroke: #008000"/>
     <use xlink:href="#m030490635c" x="136.775955" y="248.409156" style="fill: #008000; stroke: #008000"/>
     <use xlink:href="#m030490635c" x="140.088757" y="209.720601" style="fill: #008000; stroke: #008000"/>
     <use xlink:href="#m030490635c" x="143.401558" y="181.752971" style="fill: #008000; stroke: #008000"/>
     <use xlink:href="#m030490635c" x="146.71436" y="232.094705" style="fill: #008000; stroke: #008000"/>
     <use xlink:href="#m030490635c" x="150.027161" y="245.146266" style="fill: #008000; stroke: #008000"/>
     <use xlink:href="#m030490635c" x="153.339963" y="222.772162" style="fill: #008000; stroke: #008000"/>
     <use xlink:href="#m030490635c" x="156.652764" y="217.178636" style="fill: #008000; stroke: #008000"/>
     <use xlink:href="#m030490635c" x="159.965566" y="238.154358" style="fill: #008000; stroke: #008000"/>
     <use xlink:href="#m030490635c" x="163.278367" y="220.441526" style="fill: #008000; stroke: #008000"/>
     <use xlink:href="#m030490635c" x="166.591169" y="212.051237" style="fill: #008000; stroke: #008000"/>
     <use xlink:href="#m030490635c" x="169.90397" y="218.577017" style="fill: #008000; stroke: #008000"/>
     <use xlink:href="#m030490635c" x="173.216772" y="214.381873" style="fill: #008000; stroke: #008000"/>
     <use xlink:href="#m030490635c" x="176.529573" y="201.796439" style="fill: #008000; stroke: #008000"/>
     <use xlink:href="#m030490635c" x="179.842375" y="183.61748" style="fill: #008000; stroke: #008000"/>
     <use xlink:href="#m030490635c" x="183.155176" y="227.433434" style="fill: #008000; stroke: #008000"/>
     <use xlink:href="#m030490635c" x="186.467978" y="224.636671" style="fill: #008000; stroke: #008000"/>
     <use xlink:href="#m030490635c" x="189.780779" y="169.167538" style="fill: #008000; stroke: #008000"/>
     <use xlink:href="#m030490635c" x="193.093581" y="229.297942" style="fill: #008000; stroke: #008000"/>
     <use xlink:href="#m030490635c" x="196.406382" y="225.568925" style="fill: #008000; stroke: #008000"/>
     <use xlink:href="#m030490635c" x="199.719184" y="238.154358" style="fill: #008000; stroke: #008000"/>
     <use xlink:href="#m030490635c" x="203.031985" y="163.107884" style="fill: #008000; stroke: #008000"/>
     <use xlink:href="#m030490635c" x="206.344787" y="174.761064" style="fill: #008000; stroke: #008000"/>
     <use xlink:href="#m030490635c" x="209.657588" y="187.346497" style="fill: #008000; stroke: #008000"/>
     <use xlink:href="#m030490635c" x="212.97039" y="201.796439" style="fill: #008000; stroke: #008000"/>
     <use xlink:href="#m030490635c" x="216.283191" y="228.365688" style="fill: #008000; stroke: #008000"/>
     <use xlink:href="#m030490635c" x="219.595993" y="235.357595" style="fill: #008000; stroke: #008000"/>
     <use xlink:href="#m030490635c" x="222.908794" y="233.493087" style="fill: #008000; stroke: #008000"/>
     <use xlink:href="#m030490635c" x="226.221596" y="196.66904" style="fill: #008000; stroke: #008000"/>
     <use xlink:href="#m030490635c" x="229.534397" y="193.872277" style="fill: #008000; stroke: #008000"/>
     <use xlink:href="#m030490635c" x="232.847199" y="53.568" style="fill: #008000; stroke: #008000"/>
     <use xlink:href="#m030490635c" x="236.16" y="205.525457" style="fill: #008000; stroke: #008000"/>
     <use xlink:href="#m030490635c" x="239.472801" y="179.888462" style="fill: #008000; stroke: #008000"/>
     <use xlink:href="#m030490635c" x="242.785603" y="186.88037" style="fill: #008000; stroke: #008000"/>
     <use xlink:href="#m030490635c" x="246.098404" y="200.864185" style="fill: #008000; stroke: #008000"/>
     <use xlink:href="#m030490635c" x="249.411206" y="214.381873" style="fill: #008000; stroke: #008000"/>
     <use xlink:href="#m030490635c" x="252.724007" y="175.227191" style="fill: #008000; stroke: #008000"/>
     <use xlink:href="#m030490635c" x="256.036809" y="215.780254" style="fill: #008000; stroke: #008000"/>
     <use xlink:href="#m030490635c" x="259.34961" y="128.148347" style="fill: #008000; stroke: #008000"/>
     <use xlink:href="#m030490635c" x="262.662412" y="106.24037" style="fill: #008000; stroke: #008000"/>
     <use xlink:href="#m030490635c" x="265.975213" y="196.66904" style="fill: #008000; stroke: #008000"/>
     <use xlink:href="#m030490635c" x="269.288015" y="205.059329" style="fill: #008000; stroke: #008000"/>
     <use xlink:href="#m030490635c" x="272.600816" y="209.254474" style="fill: #008000; stroke: #008000"/>
     <use xlink:href="#m030490635c" x="275.913618" y="180.35459" style="fill: #008000; stroke: #008000"/>
     <use xlink:href="#m030490635c" x="279.226419" y="197.135168" style="fill: #008000; stroke: #008000"/>
     <use xlink:href="#m030490635c" x="282.539221" y="193.40615" style="fill: #008000; stroke: #008000"/>
     <use xlink:href="#m030490635c" x="285.852022" y="182.685225" style="fill: #008000; stroke: #008000"/>
     <use xlink:href="#m030490635c" x="289.164824" y="213.915746" style="fill: #008000; stroke: #008000"/>
     <use xlink:href="#m030490635c" x="292.477625" y="152.853087" style="fill: #008000; stroke: #008000"/>
     <use xlink:href="#m030490635c" x="295.790427" y="118.825803" style="fill: #008000; stroke: #008000"/>
     <use xlink:href="#m030490635c" x="299.103228" y="137.937017" style="fill: #008000; stroke: #008000"/>
     <use xlink:href="#m030490635c" x="302.41603" y="95.519445" style="fill: #008000; stroke: #008000"/>
     <use xlink:href="#m030490635c" x="305.728831" y="182.685225" style="fill: #008000; stroke: #008000"/>
     <use xlink:href="#m030490635c" x="309.041633" y="201.330312" style="fill: #008000; stroke: #008000"/>
     <use xlink:href="#m030490635c" x="312.354434" y="199.465803" style="fill: #008000; stroke: #008000"/>
     <use xlink:href="#m030490635c" x="315.667236" y="140.73378" style="fill: #008000; stroke: #008000"/>
     <use xlink:href="#m030490635c" x="318.980037" y="179.422335" style="fill: #008000; stroke: #008000"/>
     <use xlink:href="#m030490635c" x="322.292839" y="64.755052" style="fill: #008000; stroke: #008000"/>
     <use xlink:href="#m030490635c" x="325.60564" y="139.801526" style="fill: #008000; stroke: #008000"/>
     <use xlink:href="#m030490635c" x="328.918442" y="209.254474" style="fill: #008000; stroke: #008000"/>
     <use xlink:href="#m030490635c" x="332.231243" y="178.023954" style="fill: #008000; stroke: #008000"/>
     <use xlink:href="#m030490635c" x="335.544045" y="84.332393" style="fill: #008000; stroke: #008000"/>
     <use xlink:href="#m030490635c" x="338.856846" y="209.720601" style="fill: #008000; stroke: #008000"/>
     <use xlink:href="#m030490635c" x="342.169647" y="196.66904" style="fill: #008000; stroke: #008000"/>
     <use xlink:href="#m030490635c" x="345.482449" y="181.752971" style="fill: #008000; stroke: #008000"/>
     <use xlink:href="#m030490635c" x="348.79525" y="200.398058" style="fill: #008000; stroke: #008000"/>
     <use xlink:href="#m030490635c" x="352.108052" y="105.774243" style="fill: #008000; stroke: #008000"/>
     <use xlink:href="#m030490635c" x="355.420853" y="157.514358" style="fill: #008000; stroke: #008000"/>
     <use xlink:href="#m030490635c" x="358.733655" y="155.64985" style="fill: #008000; stroke: #008000"/>
     <use xlink:href="#m030490635c" x="362.046456" y="151.454705" style="fill: #008000; stroke: #008000"/>
     <use xlink:href="#m030490635c" x="365.359258" y="152.38696" style="fill: #008000; stroke: #008000"/>
     <use xlink:href="#m030490635c" x="368.672059" y="173.362682" style="fill: #008000; stroke: #008000"/>
     <use xlink:href="#m030490635c" x="371.984861" y="169.167538" style="fill: #008000; stroke: #008000"/>
     <use xlink:href="#m030490635c" x="375.297662" y="175.693318" style="fill: #008000; stroke: #008000"/>
     <use xlink:href="#m030490635c" x="378.610464" y="173.828809" style="fill: #008000; stroke: #008000"/>
     <use xlink:href="#m030490635c" x="381.923265" y="115.562913" style="fill: #008000; stroke: #008000"/>
     <use xlink:href="#m030490635c" x="385.236067" y="131.411237" style="fill: #008000; stroke: #008000"/>
     <use xlink:href="#m030490635c" x="388.548868" y="136.072509" style="fill: #008000; stroke: #008000"/>
     <use xlink:href="#m030490635c" x="391.86167" y="112.300023" style="fill: #008000; stroke: #008000"/>
     <use xlink:href="#m030490635c" x="395.174471" y="74.077595" style="fill: #008000; stroke: #008000"/>
     <use xlink:href="#m030490635c" x="398.487273" y="149.590197" style="fill: #008000; stroke: #008000"/>
    </g>
   </g>
   <g id="patch_3">
    <path d="M 57.6 307.584 
L 57.6 41.472 
" style="fill: none; stroke: #000000; stroke-width: 0.8; stroke-linejoin: miter; stroke-linecap: square"/>
   </g>
   <g id="patch_4">
    <path d="M 414.72 307.584 
L 414.72 41.472 
" style="fill: none; stroke: #000000; stroke-width: 0.8; stroke-linejoin: miter; stroke-linecap: square"/>
   </g>
   <g id="patch_5">
    <path d="M 57.6 307.584 
L 414.72 307.584 
" style="fill: none; stroke: #000000; stroke-width: 0.8; stroke-linejoin: miter; stroke-linecap: square"/>
   </g>
   <g id="patch_6">
    <path d="M 57.6 41.472 
L 414.72 41.472 
" style="fill: none; stroke: #000000; stroke-width: 0.8; stroke-linejoin: miter; stroke-linecap: square"/>
   </g>
   <g id="text_15">
    <!-- Episode Times -->
    <g transform="translate(192.882187 35.472)scale(0.12 -0.12)">
     <use xlink:href="#DejaVuSans-45"/>
     <use xlink:href="#DejaVuSans-70" x="63.183594"/>
     <use xlink:href="#DejaVuSans-69" x="126.660156"/>
     <use xlink:href="#DejaVuSans-73" x="154.443359"/>
     <use xlink:href="#DejaVuSans-6f" x="206.542969"/>
     <use xlink:href="#DejaVuSans-64" x="267.724609"/>
     <use xlink:href="#DejaVuSans-65" x="331.201172"/>
     <use xlink:href="#DejaVuSans-20" x="392.724609"/>
     <use xlink:href="#DejaVuSans-54" x="424.511719"/>
     <use xlink:href="#DejaVuSans-69" x="482.470703"/>
     <use xlink:href="#DejaVuSans-6d" x="510.253906"/>
     <use xlink:href="#DejaVuSans-65" x="607.666016"/>
     <use xlink:href="#DejaVuSans-73" x="669.189453"/>
    </g>
   </g>
   <g id="legend_1">
    <g id="patch_7">
     <path d="M 64.6 93.506375 
L 145.871875 93.506375 
Q 147.871875 93.506375 147.871875 91.506375 
L 147.871875 48.472 
Q 147.871875 46.472 145.871875 46.472 
L 64.6 46.472 
Q 62.6 46.472 62.6 48.472 
L 62.6 91.506375 
Q 62.6 93.506375 64.6 93.506375 
z
" style="fill: #ffffff; opacity: 0.8; stroke: #cccccc; stroke-linejoin: miter"/>
    </g>
    <g id="line2d_28">
     <path d="M 66.6 54.570438 
L 76.6 54.570438 
L 86.6 54.570438 
" style="fill: none; stroke: #0000ff; stroke-linecap: square"/>
     <g>
      <use xlink:href="#m1f7d0ed493" x="76.6" y="54.570438" style="fill: #0000ff; stroke: #0000ff"/>
     </g>
    </g>
    <g id="text_16">
     <!-- Average -->
     <g transform="translate(94.6 58.070438)scale(0.1 -0.1)">
      <defs>
       <path id="DejaVuSans-41" d="M 2188 4044 
L 1331 1722 
L 3047 1722 
L 2188 4044 
z
M 1831 4666 
L 2547 4666 
L 4325 0 
L 3669 0 
L 3244 1197 
L 1141 1197 
L 716 0 
L 50 0 
L 1831 4666 
z
" transform="scale(0.015625)"/>
       <path id="DejaVuSans-76" d="M 191 3500 
L 800 3500 
L 1894 563 
L 2988 3500 
L 3597 3500 
L 2284 0 
L 1503 0 
L 191 3500 
z
" transform="scale(0.015625)"/>
       <path id="DejaVuSans-72" d="M 2631 2963 
Q 2534 3019 2420 3045 
Q 2306 3072 2169 3072 
Q 1681 3072 1420 2755 
Q 1159 2438 1159 1844 
L 1159 0 
L 581 0 
L 581 3500 
L 1159 3500 
L 1159 2956 
Q 1341 3275 1631 3429 
Q 1922 3584 2338 3584 
Q 2397 3584 2469 3576 
Q 2541 3569 2628 3553 
L 2631 2963 
z
" transform="scale(0.015625)"/>
       <path id="DejaVuSans-61" d="M 2194 1759 
Q 1497 1759 1228 1600 
Q 959 1441 959 1056 
Q 959 750 1161 570 
Q 1363 391 1709 391 
Q 2188 391 2477 730 
Q 2766 1069 2766 1631 
L 2766 1759 
L 2194 1759 
z
M 3341 1997 
L 3341 0 
L 2766 0 
L 2766 531 
Q 2569 213 2275 61 
Q 1981 -91 1556 -91 
Q 1019 -91 701 211 
Q 384 513 384 1019 
Q 384 1609 779 1909 
Q 1175 2209 1959 2209 
L 2766 2209 
L 2766 2266 
Q 2766 2663 2505 2880 
Q 2244 3097 1772 3097 
Q 1472 3097 1187 3025 
Q 903 2953 641 2809 
L 641 3341 
Q 956 3463 1253 3523 
Q 1550 3584 1831 3584 
Q 2591 3584 2966 3190 
Q 3341 2797 3341 1997 
z
" transform="scale(0.015625)"/>
       <path id="DejaVuSans-67" d="M 2906 1791 
Q 2906 2416 2648 2759 
Q 2391 3103 1925 3103 
Q 1463 3103 1205 2759 
Q 947 2416 947 1791 
Q 947 1169 1205 825 
Q 1463 481 1925 481 
Q 2391 481 2648 825 
Q 2906 1169 2906 1791 
z
M 3481 434 
Q 3481 -459 3084 -895 
Q 2688 -1331 1869 -1331 
Q 1566 -1331 1297 -1286 
Q 1028 -1241 775 -1147 
L 775 -588 
Q 1028 -725 1275 -790 
Q 1522 -856 1778 -856 
Q 2344 -856 2625 -561 
Q 2906 -266 2906 331 
L 2906 616 
Q 2728 306 2450 153 
Q 2172 0 1784 0 
Q 1141 0 747 490 
Q 353 981 353 1791 
Q 353 2603 747 3093 
Q 1141 3584 1784 3584 
Q 2172 3584 2450 3431 
Q 2728 3278 2906 2969 
L 2906 3500 
L 3481 3500 
L 3481 434 
z
" transform="scale(0.015625)"/>
      </defs>
      <use xlink:href="#DejaVuSans-41"/>
      <use xlink:href="#DejaVuSans-76" x="62.533203"/>
      <use xlink:href="#DejaVuSans-65" x="121.712891"/>
      <use xlink:href="#DejaVuSans-72" x="183.236328"/>
      <use xlink:href="#DejaVuSans-61" x="224.349609"/>
      <use xlink:href="#DejaVuSans-67" x="285.628906"/>
      <use xlink:href="#DejaVuSans-65" x="349.105469"/>
     </g>
    </g>
    <g id="line2d_29">
     <path d="M 66.6 69.248563 
L 76.6 69.248563 
L 86.6 69.248563 
" style="fill: none; stroke: #ff0000; stroke-linecap: square"/>
     <g>
      <use xlink:href="#m4a3d016ae8" x="76.6" y="69.248563" style="fill: #ff0000; stroke: #ff0000"/>
     </g>
    </g>
    <g id="text_17">
     <!-- Maximum -->
     <g transform="translate(94.6 72.748563)scale(0.1 -0.1)">
      <defs>
       <path id="DejaVuSans-4d" d="M 628 4666 
L 1569 4666 
L 2759 1491 
L 3956 4666 
L 4897 4666 
L 4897 0 
L 4281 0 
L 4281 4097 
L 3078 897 
L 2444 897 
L 1241 4097 
L 1241 0 
L 628 0 
L 628 4666 
z
" transform="scale(0.015625)"/>
       <path id="DejaVuSans-78" d="M 3513 3500 
L 2247 1797 
L 3578 0 
L 2900 0 
L 1881 1375 
L 863 0 
L 184 0 
L 1544 1831 
L 300 3500 
L 978 3500 
L 1906 2253 
L 2834 3500 
L 3513 3500 
z
" transform="scale(0.015625)"/>
       <path id="DejaVuSans-75" d="M 544 1381 
L 544 3500 
L 1119 3500 
L 1119 1403 
Q 1119 906 1312 657 
Q 1506 409 1894 409 
Q 2359 409 2629 706 
Q 2900 1003 2900 1516 
L 2900 3500 
L 3475 3500 
L 3475 0 
L 2900 0 
L 2900 538 
Q 2691 219 2414 64 
Q 2138 -91 1772 -91 
Q 1169 -91 856 284 
Q 544 659 544 1381 
z
M 1991 3584 
L 1991 3584 
z
" transform="scale(0.015625)"/>
      </defs>
      <use xlink:href="#DejaVuSans-4d"/>
      <use xlink:href="#DejaVuSans-61" x="86.279297"/>
      <use xlink:href="#DejaVuSans-78" x="147.558594"/>
      <use xlink:href="#DejaVuSans-69" x="206.738281"/>
      <use xlink:href="#DejaVuSans-6d" x="234.521484"/>
      <use xlink:href="#DejaVuSans-75" x="331.933594"/>
      <use xlink:href="#DejaVuSans-6d" x="395.3125"/>
     </g>
    </g>
    <g id="line2d_30">
     <path d="M 66.6 83.926688 
L 76.6 83.926688 
L 86.6 83.926688 
" style="fill: none; stroke: #008000; stroke-linecap: square"/>
     <g>
      <use xlink:href="#m030490635c" x="76.6" y="83.926688" style="fill: #008000; stroke: #008000"/>
     </g>
    </g>
    <g id="text_18">
     <!-- Minimum -->
     <g transform="translate(94.6 87.426688)scale(0.1 -0.1)">
      <defs>
       <path id="DejaVuSans-6e" d="M 3513 2113 
L 3513 0 
L 2938 0 
L 2938 2094 
Q 2938 2591 2744 2837 
Q 2550 3084 2163 3084 
Q 1697 3084 1428 2787 
Q 1159 2491 1159 1978 
L 1159 0 
L 581 0 
L 581 3500 
L 1159 3500 
L 1159 2956 
Q 1366 3272 1645 3428 
Q 1925 3584 2291 3584 
Q 2894 3584 3203 3211 
Q 3513 2838 3513 2113 
z
" transform="scale(0.015625)"/>
      </defs>
      <use xlink:href="#DejaVuSans-4d"/>
      <use xlink:href="#DejaVuSans-69" x="86.279297"/>
      <use xlink:href="#DejaVuSans-6e" x="114.0625"/>
      <use xlink:href="#DejaVuSans-69" x="177.441406"/>
      <use xlink:href="#DejaVuSans-6d" x="205.224609"/>
      <use xlink:href="#DejaVuSans-75" x="302.636719"/>
      <use xlink:href="#DejaVuSans-6d" x="366.015625"/>
     </g>
    </g>
   </g>
  </g>
 </g>
 <defs>
  <clipPath id="p06acf9a0e5">
   <rect x="57.6" y="41.472" width="357.12" height="266.112"/>
  </clipPath>
 </defs>
</svg>
